<svg width="56" height="56" viewBox="0 0 56 56" fill="none" xmlns="http://www.w3.org/2000/svg">
<g filter="url(#filter0_f_1532_3039)">
<path d="M16 37.5758C16 39.3945 18.1051 40.5663 19.8584 39.7179L26.2602 36.6149L27.56 26.2043L28.8648 36.6149L35.2666 39.7179C37.0199 40.5663 39.125 39.3992 39.125 37.5758C39.125 37.2477 39.0536 36.9196 38.9109 36.6149L29.8893 17.4062C29.0075 15.5313 26.1175 15.5313 25.2357 17.4062L16.2141 36.6149C16.0714 36.9196 16 37.2477 16 37.5758Z" fill="url(#paint0_radial_1532_3039)"/>
</g>
<path d="M16.9688 36.687C16.9688 38.3541 18.8984 39.4283 20.5056 38.6506L26.374 35.8062L27.5654 26.2631L28.7615 35.8062L34.6298 38.6506C36.237 39.4283 38.1667 38.3584 38.1667 36.687C38.1667 36.3862 38.1013 36.0855 37.9704 35.8062L29.7006 18.1982C28.8923 16.4795 26.2431 16.4795 25.4348 18.1982L17.165 35.8062C17.0342 36.0855 16.9688 36.3862 16.9688 36.687Z" fill="url(#paint1_radial_1532_3039)"/>
<defs>
<filter id="filter0_f_1532_3039" x="0" y="0" width="55.125" height="56" filterUnits="userSpaceOnUse" color-interpolation-filters="sRGB">
<feFlood flood-opacity="0" result="BackgroundImageFix"/>
<feBlend mode="normal" in="SourceGraphic" in2="BackgroundImageFix" result="shape"/>
<feGaussianBlur stdDeviation="8" result="effect1_foregroundBlur_1532_3039"/>
</filter>
<radialGradient id="paint0_radial_1532_3039" cx="0" cy="0" r="1" gradientUnits="userSpaceOnUse" gradientTransform="translate(27.8026 16) rotate(90) scale(20.7559 154.183)">
<stop stop-color="#C0E5FF"/>
<stop offset="0.316337" stop-color="#70C5FE"/>
<stop offset="0.610801" stop-color="#34ADFF"/>
<stop offset="1" stop-color="#0098FF"/>
</radialGradient>
<radialGradient id="paint1_radial_1532_3039" cx="0" cy="0" r="1" gradientUnits="userSpaceOnUse" gradientTransform="translate(27.7878 16.9092) rotate(90) scale(19.0262 141.335)">
<stop stop-color="#9ED7FE"/>
<stop offset="0.316337" stop-color="#70C5FE"/>

<stop offset="0.610801" stop-color="#34ADFF"/>
<stop offset="1" stop-color="#1189FF"/>
</radialGradient>
</defs>
</svg>
